<svg xmlns="http://www.w3.org/2000/svg" viewBox="0 0 88 24" role="img" aria-label="Plex">
  <path fill="#ffbd49" d="M15.01 23.75c-6.46 0-10.22-4.71-10.22-10.89 0-6.35 3.92-11.06 10.38-11.06 2.75 0 5.01.87 6.66 2.41l-2.19 2.89c-1.15-.95-2.47-1.41-4.09-1.41-3.7 0-6.14 2.89-6.14 7.17 0 4.2 2.44 7 6.14 7 1.7 0 3.11-.54 4.34-1.57l2.11 2.97c-1.74 1.57-4.17 2.49-7 2.49zm20.16 0c-5.72 0-9.35-4.04-9.35-10.89 0-6.76 3.71-10.89 9.43-10.89 5.8 0 9.43 4.13 9.43 10.89 0 6.85-3.63 10.89-9.51 10.89zm0-4.38c3.03 0 4.84-2.41 4.84-6.51 0-4.04-1.81-6.51-4.76-6.51-2.95 0-4.68 2.47-4.68 6.51 0 4.1 1.73 6.51 4.6 6.51zm15.87 4.13V2.93h4.17v8.41l7.73-8.41h5.01l-8.16 8.65 8.57 11.77h-5.09l-5.8-8.16-2.26 2.53v5.63h-4.17zm23.39 0V2.93h9.84c4.51 0 7.11 2.41 7.11 6.27 0 2.89-1.41 5.01-3.87 5.84l4.34 8.71h-4.84l-3.87-7.73h-4.09v7.73h-4.62zm4.51-11.77h4.17c2.03 0 3.11-.95 3.11-2.53 0-1.57-1.08-2.53-3.11-2.53h-4.17v5.06z"/>
</svg>
