<svg xmlns="http://www.w3.org/2000/svg" viewBox="0 0 168 27.78" role="img" aria-label="wrapped">
  <defs>
    <radialGradient id="wrappedGold" cx="1244.322" cy="919.871" r=".925" gradientTransform="matrix(610,0,0,-1000.5,-756323.63,921038.75)" gradientUnits="userSpaceOnUse">
      <stop offset="0" stop-color="#f9be03"/>
      <stop offset="1" stop-color="#cc7c19"/>
    </radialGradient>
  </defs>
  <g fill="#494949">
    <!-- w -->
    <path d="M0 0 4.8 27.78 8.4 27.78 12.2 10.8 16 27.78 19.6 27.78 24.4 0 20.4 0 16.4 16.2 12.4 0 8.4 0 4.4 16.2 0.4 0 0 0z"/>
    <!-- a -->
    <path d="M28.2 13.89c0-7.66 4.7-12.46 11.2-12.46s11.2 4.8 11.2 12.46-4.7 12.46-11.2 12.46-11.2-4.8-11.2-12.46zm4.2 0c0 4.9 2.7 7.95 7 7.95s7-3.05 7-7.95-2.7-7.95-7-7.95-7 3.05-7 7.95z"/>
    <!-- r -->
    <path d="M54.8 0h5.5v10.4c1.7-1.3 3.8-2 6.2-2 5.2 0 8.6 3.6 8.6 9.3v10.08h-5.5V17.2c0-3.2-1.7-5-4.6-5-3 0-5.1 1.9-5.1 5.1v10.48h-5.5V0z"/>
    <!-- e (Plex wordmark proportions) -->
    <path d="M124.2 0h16.032v27.78H124.2v-4.827h10.13v6.1h9.425v4.826h-9.425v7.164h10.13v4.865z"/>
    <!-- d -->
    <path d="M144.2 0h5.5v27.78h5.3c6 0 9.5-3.4 9.5-8.89s-3.5-8.89-9.5-8.89h-5.3V0z"/>
  </g>
  <g fill="url(#wrappedGold)">
    <!-- p -->
    <path d="M78.2 0h5.5v11.92h5.9v4.83h-5.9c-3.4 0-5.2 1.7-5.2 4.13 0 2.3 1.6 4.08 4.4 4.08 1.5 0 2.7-.25 3.6-.7v4.62c-1.2.42-2.7.65-4.4.65-5.9 0-9.5-3.2-10.4-8.52V27.78h-5.5V0z"/>
    <!-- p -->
    <path d="M101.8 0h5.5v11.92h5.9v4.83h-5.9c-3.4 0-5.2 1.7-5.2 4.13 0 2.3 1.6 4.08 4.4 4.08 1.5 0 2.7-.25 3.6-.7v4.62c-1.2.42-2.7.65-4.4.65-5.9 0-9.5-3.2-10.4-8.52V27.78h-5.5V0z"/>
  </g>
</svg>
